<svg id="visual" viewBox="0 0 900 675" width="900" height="675" xmlns="http://www.w3.org/2000/svg" xmlns:xlink="http://www.w3.org/1999/xlink" version="1.1"><rect x="0" y="0" width="900" height="675" fill="#edb026"></rect><path d="M540 0L516.5 11.3C493 22.7 446 45.3 436.7 67.8C427.3 90.3 455.7 112.7 447.7 135.2C439.7 157.7 395.3 180.3 402 202.8C408.7 225.3 466.3 247.7 496.5 270.2C526.7 292.7 529.3 315.3 547 337.8C564.7 360.3 597.3 382.7 610.2 405C623 427.3 616 449.7 586.8 472.2C557.7 494.7 506.3 517.3 483.3 540C460.3 562.7 465.7 585.3 477 607.8C488.3 630.3 505.7 652.7 514.3 663.8L523 675L0 675L0 663.8C0 652.7 0 630.3 0 607.8C0 585.3 0 562.7 0 540C0 517.3 0 494.7 0 472.2C0 449.7 0 427.3 0 405C0 382.7 0 360.3 0 337.8C0 315.3 0 292.7 0 270.2C0 247.7 0 225.3 0 202.8C0 180.3 0 157.7 0 135.2C0 112.7 0 90.3 0 67.8C0 45.3 0 22.7 0 11.3L0 0Z" fill="#232323" stroke-linecap="round" stroke-linejoin="miter"></path></svg>