<svg id="visual" viewBox="0 0 1920 1080" width="1920" height="1080" xmlns="http://www.w3.org/2000/svg" xmlns:xlink="http://www.w3.org/1999/xlink" version="1.1"><rect x="0" y="0" width="1920" height="1080" fill="#232323"></rect><defs><linearGradient id="grad1_0" x1="43.8%" y1="0%" x2="100%" y2="100%"><stop offset="14.444444444444446%" stop-color="#232323" stop-opacity="1"></stop><stop offset="85.55555555555554%" stop-color="#232323" stop-opacity="1"></stop></linearGradient></defs><defs><linearGradient id="grad2_0" x1="0%" y1="0%" x2="56.3%" y2="100%"><stop offset="14.444444444444446%" stop-color="#232323" stop-opacity="1"></stop><stop offset="85.55555555555554%" stop-color="#232323" stop-opacity="1"></stop></linearGradient></defs><g transform="translate(1920, 0)"><path d="M0 648C-58 640.2 -116.1 632.4 -163.6 610.5C-211.1 588.5 -248.1 552.4 -308 533.5C-367.9 514.5 -450.7 512.8 -458.2 458.2C-465.7 403.6 -398 296.2 -424.4 245C-450.7 193.8 -571 198.7 -624 167.2C-676.9 135.7 -662.5 67.9 -648 0L0 0Z" fill="#edb026"></path></g><g transform="translate(0, 1080)"><path d="M0 -648C56.1 -620.4 112.1 -592.9 147.3 -549.6C182.4 -506.4 196.6 -447.5 254.5 -440.8C312.4 -434.2 414.1 -479.8 458.2 -458.2C502.3 -436.6 488.7 -347.8 498 -287.5C507.2 -227.2 539.2 -195.4 568 -152.2C596.8 -109 622.4 -54.5 648 0L0 0Z" fill="#edb026"></path></g></svg>